<?xml version="1.0" standalone="no"?>
<!DOCTYPE svg PUBLIC "-//W3C//DTD SVG 20010904//EN"
 "http://www.w3.org/TR/2001/REC-SVG-20010904/DTD/svg10.dtd">
<svg version="1.0" xmlns="http://www.w3.org/2000/svg"
 width="1024.000000pt" height="1024.000000pt" viewBox="0 0 1024.000000 1024.000000"
 preserveAspectRatio="xMidYMid meet">

<g transform="translate(0.000000,1024.000000) scale(0.100000,-0.100000)"
fill="#000000" stroke="none">
<path d="M3954 6515 c0 -104 2 -146 3 -92 2 54 2 139 0 190 -1 51 -3 7 -3 -98z"/>
<path d="M6338 6593 c12 -2 32 -2 45 0 12 2 2 4 -23 4 -25 0 -35 -2 -22 -4z"/>
<path d="M7213 6593 c15 -2 37 -2 50 0 12 2 0 4 -28 4 -27 0 -38 -2 -22 -4z"/>
<path d="M7308 6593 c12 -2 30 -2 40 0 9 3 -1 5 -23 4 -22 0 -30 -2 -17 -4z"/>
<path d="M7597 6593 c-5 -7 377 -7 853 0 102 1 -48 3 -332 5 -284 1 -519 -1
-521 -5z"/>
<path d="M8632 6493 l-2 -93 -197 -3 -198 -2 198 -3 c157 -2 199 1 203 11 3 8
3 52 1 98 l-3 84 -2 -92z"/>
<path d="M7111 6458 c1 -65 6 -123 11 -130 4 -7 5 43 1 112 -3 69 -8 127 -10
130 -2 3 -3 -48 -2 -112z"/>
<path d="M7375 6180 c0 -217 1 -306 2 -197 2 108 2 286 0 395 -1 108 -2 19 -2
-198z"/>
<path d="M7584 6485 l1 -90 208 -3 207 -2 0 -566 0 -565 123 3 122 3 0 558 0
557 -2 -555 -3 -555 -115 0 -115 0 -2 563 -3 562 -205 5 -205 5 -6 85 -6 85 1
-90z"/>
<path d="M6223 6175 c-1 -214 2 -410 5 -435 7 -42 5 683 -1 780 -2 25 -4 -130
-4 -345z"/>
<path d="M5326 6379 c-104 -15 -218 -86 -257 -161 -6 -13 8 -1 31 25 76 86
167 127 279 127 115 0 199 -32 284 -107 20 -18 42 -33 48 -33 13 0 -67 70
-112 98 -69 42 -185 64 -273 51z"/>
<path d="M5920 6372 c0 -7 -22 -26 -50 -43 -59 -36 -66 -47 -12 -20 42 21 79
58 69 68 -4 3 -7 1 -7 -5z"/>
<path d="M2318 6313 c7 -3 16 -2 19 1 4 3 -2 6 -13 5 -11 0 -14 -3 -6 -6z"/>
<path d="M2738 6313 c188 -2 496 -2 685 0 188 1 34 2 -343 2 -377 0 -531 -1
-342 -2z"/>
<path d="M3936 6313 c-4 -5 -371 -10 -814 -13 l-807 -5 801 -3 c691 -2 803 0
820 13 10 8 16 15 13 15 -3 0 -9 -3 -13 -7z"/>
<path d="M2268 6303 c7 -3 16 -2 19 1 4 3 -2 6 -13 5 -11 0 -14 -3 -6 -6z"/>
<path d="M7121 6294 c0 -11 3 -14 6 -6 3 7 2 16 -1 19 -3 4 -6 -2 -5 -13z"/>
<path d="M2273 6283 c9 -2 23 -2 30 0 6 3 -1 5 -18 5 -16 0 -22 -2 -12 -5z"/>
<path d="M5778 6274 c-38 -20 -36 -28 2 -9 17 9 30 18 30 20 0 7 -1 6 -32 -11z"/>
<path d="M2193 6265 c-18 -8 -33 -16 -33 -19 0 -3 15 1 33 8 17 7 39 16 47 19
13 5 13 5 0 6 -8 0 -30 -6 -47 -14z"/>
<path d="M2110 6240 c-14 -11 -21 -20 -16 -20 5 0 1 -10 -10 -21 -14 -16 -8
-14 22 7 23 16 37 32 32 35 -6 4 -5 9 3 12 8 3 10 6 4 6 -5 0 -21 -8 -35 -19z
m15 -10 c-3 -5 -12 -10 -18 -10 -7 0 -6 4 3 10 19 12 23 12 15 0z"/>
<path d="M7119 6253 c0 -5 -1 -123 -3 -263 -1 -160 1 -229 6 -185 6 61 7 455
1 455 -2 0 -3 -3 -4 -7z"/>
<path d="M5034 6153 c-8 -21 -17 -49 -18 -63 -2 -14 -1 -18 1 -10 3 8 14 36
24 63 22 56 16 64 -7 10z"/>
<path d="M2034 6158 c-11 -13 -28 -34 -39 -48 -16 -21 -14 -20 14 5 29 27 58
65 48 65 -2 0 -12 -10 -23 -22z"/>
<path d="M4741 6104 c0 -11 3 -14 6 -6 3 7 2 16 -1 19 -3 4 -6 -2 -5 -13z"/>
<path d="M1945 6035 c-15 -25 -25 -48 -23 -52 1 -5 15 15 30 44 33 65 28 69
-7 8z"/>
<path d="M4732 6045 c0 -16 2 -22 5 -12 2 9 2 23 0 30 -3 6 -5 -1 -5 -18z"/>
<path d="M5002 6025 c0 -16 2 -22 5 -12 2 9 2 23 0 30 -3 6 -5 -1 -5 -18z"/>
<path d="M1412 6000 c0 -14 2 -19 5 -12 2 6 2 18 0 25 -3 6 -5 1 -5 -13z"/>
<path d="M5715 6010 l270 -5 6 -125 5 -125 0 130 -1 130 -275 0 -275 1 270 -6z"/>
<path d="M4726 5893 c16 -306 179 -530 448 -615 86 -27 269 -35 362 -15 172
37 321 147 397 293 20 40 37 78 37 85 0 7 -15 -18 -34 -56 -72 -150 -190 -249
-360 -303 -37 -12 -87 -17 -186 -16 -120 0 -144 3 -215 27 -112 38 -196 90
-270 168 -104 111 -152 230 -175 439 l-9 85 5 -92z"/>
<path d="M1906 5945 c-3 -9 -6 -22 -5 -28 0 -7 5 -1 10 12 5 13 8 26 5 28 -2
2 -6 -3 -10 -12z"/>
<path d="M5432 5888 c-3 -93 -12 -88 167 -86 l156 2 -155 6 -155 5 -6 65 -6
65 -1 -57z"/>
<path d="M1892 5880 c0 -14 2 -19 5 -12 2 6 2 18 0 25 -3 6 -5 1 -5 -13z"/>
<path d="M1392 5860 c0 -14 2 -19 5 -12 2 6 2 18 0 25 -3 6 -5 1 -5 -13z"/>
<path d="M5002 5830 c0 -19 2 -27 5 -17 2 9 2 25 0 35 -3 9 -5 1 -5 -18z"/>
<path d="M1883 5805 c0 -27 2 -38 4 -22 2 15 2 37 0 50 -2 12 -4 0 -4 -28z"/>
<path d="M1395 5435 c0 -220 1 -309 2 -197 2 112 2 292 0 400 -1 108 -2 17 -2
-203z"/>
<path d="M6482 5780 c0 -14 2 -19 5 -12 2 6 2 18 0 25 -3 6 -5 1 -5 -13z"/>
<path d="M5011 5780 c0 -8 6 -28 14 -45 17 -39 18 -21 0 25 -7 19 -14 28 -14
20z"/>
<path d="M5736 5739 c-3 -18 -4 -34 -2 -36 2 -3 7 10 11 27 4 17 5 34 2 36 -2
3 -7 -10 -11 -27z"/>
<path d="M7362 5740 c0 -19 2 -27 5 -17 2 9 2 25 0 35 -3 9 -5 1 -5 -18z"/>
<path d="M2572 5563 c-2 -192 -1 -204 18 -223 20 -20 32 -20 448 -20 l427 1 6
-98 5 -98 2 108 c1 77 5 106 13 101 7 -4 10 -1 7 7 -4 12 -80 14 -448 17 -296
1 -441 -1 -434 -8 6 -6 164 -11 419 -13 l410 -2 -416 -3 c-390 -2 -417 -1
-432 16 -14 15 -17 50 -20 218 l-2 199 -3 -202z"/>
<path d="M5976 5709 c-4 -23 -5 -44 -2 -46 2 -2 7 14 11 37 4 23 5 43 2 46 -2
3 -7 -14 -11 -37z"/>
<path d="M3954 5390 c0 -190 2 -267 3 -172 2 94 2 250 0 345 -1 94 -3 17 -3
-173z"/>
<path d="M7101 5714 c0 -11 3 -14 6 -6 3 7 2 16 -1 19 -3 4 -6 -2 -5 -13z"/>
<path d="M5040 5691 c0 -6 4 -13 10 -16 6 -3 7 1 4 9 -7 18 -14 21 -14 7z"/>
<path d="M5712 5658 c-10 -30 -10 -31 3 -14 13 17 21 46 12 46 -1 0 -8 -15
-15 -32z"/>
<path d="M6245 5660 c11 -68 72 -179 137 -247 47 -49 83 -74 143 -103 98 -47
159 -60 278 -60 168 0 304 50 407 150 52 50 120 150 119 175 0 6 -12 -12 -26
-40 -32 -62 -143 -175 -203 -205 -92 -47 -152 -62 -270 -67 -108 -5 -120 -3
-211 26 -187 60 -300 170 -361 351 -13 39 -17 45 -13 20z"/>
<path d="M7086 5675 c-9 -26 -7 -32 5 -12 6 10 9 21 6 23 -2 3 -7 -2 -11 -11z"/>
<path d="M7346 5654 c-4 -14 -5 -28 -3 -31 3 -2 8 8 11 23 4 14 5 28 3 31 -3
2 -8 -8 -11 -23z"/>
<path d="M6510 5666 c0 -11 30 -66 36 -66 2 0 -3 15 -12 33 -19 36 -24 44 -24
33z"/>
<path d="M7060 5620 c-6 -11 -8 -20 -6 -20 3 0 10 9 16 20 6 11 8 20 6 20 -3
0 -10 -9 -16 -20z"/>
<path d="M6575 5562 c17 -19 39 -38 50 -44 11 -6 16 -7 10 -2 -5 5 -28 25 -50
44 l-40 35 30 -33z"/>
<path d="M7009 5553 c-22 -24 -26 -31 -11 -20 21 14 59 57 50 57 -2 0 -20 -16
-39 -37z"/>
<path d="M5145 5560 c10 -11 20 -20 23 -20 3 0 -3 9 -13 20 -10 11 -20 20 -23
20 -3 0 3 -9 13 -20z"/>
<path d="M5187 5529 c7 -7 15 -10 18 -7 3 3 -2 9 -12 12 -14 6 -15 5 -6 -5z"/>
<path d="M5540 5500 c-8 -5 -10 -10 -5 -10 6 0 17 5 25 10 8 5 11 10 5 10 -5
0 -17 -5 -25 -10z"/>
<path d="M6930 5500 c-9 -6 -10 -10 -3 -10 6 0 15 5 18 10 8 12 4 12 -15 0z"/>
<path d="M6888 5483 c7 -3 16 -2 19 1 4 3 -2 6 -13 5 -11 0 -14 -3 -6 -6z"/>
<path d="M5368 5473 c17 -2 47 -2 65 0 17 2 3 4 -33 4 -36 0 -50 -2 -32 -4z"/>
<path d="M6783 5473 c15 -2 39 -2 55 0 15 2 2 4 -28 4 -30 0 -43 -2 -27 -4z"/>
<path d="M1873 5285 c0 -44 2 -61 4 -37 2 23 2 59 0 80 -2 20 -4 1 -4 -43z"/>
<path d="M3462 5090 c0 -14 2 -19 5 -12 2 6 2 18 0 25 -3 6 -5 1 -5 -13z"/>
<path d="M1882 5075 c0 -16 4 -43 8 -60 11 -42 11 -1 1 50 -7 34 -9 35 -9 10z"/>
<path d="M3452 5030 c0 -14 2 -19 5 -12 2 6 2 18 0 25 -3 6 -5 1 -5 -13z"/>
<path d="M1406 4962 c12 -139 78 -307 169 -431 135 -183 260 -278 667 -504
306 -170 377 -207 400 -207 33 0 671 327 784 402 188 124 351 301 438 475 42
85 29 75 -19 -14 -64 -120 -124 -199 -217 -289 -103 -98 -178 -151 -339 -242
-160 -89 -595 -307 -632 -316 -33 -8 -99 25 -416 202 -348 196 -468 280 -591
418 -124 138 -198 292 -234 485 -15 80 -15 81 -10 21z"/>
<path d="M3942 4990 c0 -14 2 -19 5 -12 2 6 2 18 0 25 -3 6 -5 1 -5 -13z"/>
<path d="M1900 4964 c0 -10 5 -26 10 -34 8 -11 9 -7 4 15 -8 37 -14 45 -14 19z"/>
<path d="M3931 4934 c0 -11 3 -14 6 -6 3 7 2 16 -1 19 -3 4 -6 -2 -5 -13z"/>
<path d="M3921 4884 c0 -11 3 -14 6 -6 3 7 2 16 -1 19 -3 4 -6 -2 -5 -13z"/>
<path d="M4988 4893 c12 -2 30 -2 40 0 9 3 -1 5 -23 4 -22 0 -30 -2 -17 -4z"/>
<path d="M5108 4893 c6 -2 18 -2 25 0 6 3 1 5 -13 5 -14 0 -19 -2 -12 -5z"/>
<path d="M6708 4893 c23 -2 59 -2 80 0 20 2 1 4 -43 4 -44 0 -61 -2 -37 -4z"/>
<path d="M3391 4863 c-10 -26 -10 -27 4 -9 8 11 15 23 15 28 0 15 -7 8 -19
-19z"/>
<path d="M5168 4883 c7 -3 16 -2 19 1 4 3 -2 6 -13 5 -11 0 -14 -3 -6 -6z"/>
<path d="M5600 4535 l0 -355 80 0 80 0 0 124 0 125 50 4 50 4 -52 -1 -53 -1
-3 -122 -3 -123 -69 0 -70 0 0 345 0 345 183 3 182 2 -187 3 -188 2 0 -355z"/>
<path d="M6638 4883 c7 -3 16 -2 19 1 4 3 -2 6 -13 5 -11 0 -14 -3 -6 -6z"/>
<path d="M7324 4876 c-11 -28 2 -490 15 -528 20 -64 71 -120 136 -153 55 -28
68 -30 165 -30 88 0 113 4 155 23 65 30 118 83 147 146 22 49 23 63 24 291 l1
240 -6 -240 c-7 -257 -10 -276 -66 -349 -14 -18 -53 -49 -88 -67 -59 -33 -66
-34 -167 -34 -89 1 -112 4 -152 24 -58 28 -122 96 -139 147 -8 25 -14 128 -16
287 l-5 247 71 0 71 0 0 -217 c0 -120 5 -235 10 -255 11 -38 68 -108 89 -108
6 0 -5 14 -25 32 -20 17 -41 43 -47 57 -7 16 -14 118 -17 261 l-5 235 -73 3
c-56 2 -74 0 -78 -12z"/>
<path d="M7820 4678 c0 -117 -5 -231 -10 -252 -12 -54 -38 -87 -91 -115 -35
-18 -38 -22 -15 -16 44 10 81 40 102 82 17 33 19 67 22 271 l3 234 70 -4 c38
-2 69 0 69 5 0 4 -34 7 -75 7 l-75 0 0 -212z"/>
<path d="M8150 4535 l0 -355 83 2 82 2 -77 3 -78 4 0 344 0 345 168 3 167 3
-172 2 -173 2 0 -355z"/>
<path d="M6567 4859 c-69 -36 -157 -144 -157 -191 0 -7 11 10 24 38 29 62 81
116 144 148 26 14 43 25 37 25 -5 0 -27 -9 -48 -20z"/>
<path d="M8528 4873 c7 -3 16 -2 19 1 4 3 -2 6 -13 5 -11 0 -14 -3 -6 -6z"/>
<path d="M6920 4866 c0 -2 7 -7 16 -10 8 -3 12 -2 9 4 -6 10 -25 14 -25 6z"/>
<path d="M3906 4834 c-4 -14 -5 -28 -3 -31 3 -2 8 8 11 23 4 14 5 28 3 31 -3
2 -8 -8 -11 -23z"/>
<path d="M8611 4837 c49 -32 79 -97 79 -172 -1 -145 -80 -209 -280 -225 l-95
-8 100 3 c153 4 224 39 266 130 24 53 25 147 0 200 -18 40 -72 95 -93 95 -6 0
4 -10 23 -23z"/>
<path d="M6094 4829 c43 -34 66 -90 66 -162 0 -53 -5 -71 -30 -110 -16 -26
-46 -57 -65 -68 -41 -25 -47 -36 -7 -15 34 18 75 62 96 103 18 35 22 137 7
176 -12 30 -69 97 -83 97 -6 0 1 -9 16 -21z"/>
<path d="M4779 4793 l-34 -38 38 34 c20 19 37 36 37 38 0 8 -8 0 -41 -34z"/>
<path d="M5318 4795 l32 -40 -62 -30 -63 -30 -30 28 c-95 92 -255 74 -320 -37
-14 -23 -25 -51 -25 -62 1 -10 7 -2 15 20 17 47 59 94 102 112 72 31 186 6
231 -50 l21 -27 71 36 71 36 -20 28 c-11 15 -28 34 -38 42 -10 8 -3 -4 15 -26z"/>
<path d="M7035 4775 c47 -63 53 -69 29 -27 -10 18 -30 43 -43 55 -14 13 -8 1
14 -28z"/>
<path d="M6711 4778 c-24 -4 -54 -14 -67 -22 -33 -22 -72 -76 -78 -111 l-6
-30 12 31 c37 87 91 124 185 124 72 0 129 -33 165 -94 20 -36 23 -54 23 -141
0 -90 -3 -105 -27 -148 -15 -26 -23 -45 -17 -42 49 31 77 216 45 300 -40 105
-124 153 -235 133z"/>
<path d="M5752 4663 l3 -118 70 -1 70 0 -67 3 -68 4 0 110 0 111 91 -4 c88 -3
92 -4 120 -36 30 -34 36 -34 18 0 -17 32 -71 48 -159 48 l-81 0 3 -117z"/>
<path d="M8390 4770 c101 -8 116 -14 135 -51 31 -59 7 -137 -46 -154 -11 -4
-18 -9 -16 -12 3 -2 18 2 34 11 34 17 53 53 53 99 -1 81 -54 118 -170 115
l-75 -1 85 -7z"/>
<path d="M4712 4695 c-7 -14 -12 -31 -12 -38 1 -7 7 3 16 22 17 39 13 54 -4
16z"/>
<path d="M7081 4710 c0 -3 6 -27 14 -55 8 -30 14 -40 14 -25 0 20 -26 97 -28
80z"/>
<path d="M6001 4665 c-2 -46 -23 -78 -61 -97 -19 -10 -29 -18 -22 -18 26 0 71
34 82 61 6 15 10 40 7 55 l-4 29 -2 -30z"/>
<path d="M6401 4634 c0 -11 3 -14 6 -6 3 7 2 16 -1 19 -3 4 -6 -2 -5 -13z"/>
<path d="M3160 4630 c-9 -6 -10 -10 -3 -10 6 0 15 5 18 10 8 12 4 12 -15 0z"/>
<path d="M4694 4525 c1 -96 5 -117 28 -165 45 -95 121 -158 223 -185 179 -46
350 18 419 157 14 29 26 59 25 67 0 9 -9 -7 -20 -36 -25 -64 -87 -128 -159
-162 -48 -23 -68 -26 -155 -26 -86 1 -108 5 -155 26 -69 32 -138 99 -170 164
-18 39 -25 75 -31 160 l-7 110 2 -110z"/>
<path d="M6392 4539 c-4 -162 67 -284 200 -345 55 -25 75 -28 158 -29 86 0
101 3 162 32 106 50 182 144 194 240 4 36 4 36 -9 -8 -60 -208 -276 -310 -487
-230 -126 47 -199 159 -210 321 l-7 95 -1 -76z"/>
<path d="M6553 4540 c0 -41 2 -58 4 -37 2 20 2 54 0 75 -2 20 -4 3 -4 -38z"/>
<path d="M3040 4590 c-21 -7 -21 -8 -5 -9 11 0 27 4 35 9 18 11 5 11 -30 0z"/>
<path d="M7113 4540 c0 -36 2 -50 4 -32 2 17 2 47 0 65 -2 17 -4 3 -4 -33z"/>
<path d="M2348 4573 c6 -2 18 -2 25 0 6 3 1 5 -13 5 -14 0 -19 -2 -12 -5z"/>
<path d="M2978 4573 c6 -2 18 -2 25 0 6 3 1 5 -13 5 -14 0 -19 -2 -12 -5z"/>
<path d="M4843 4540 c0 -25 2 -35 4 -22 2 12 2 32 0 45 -2 12 -4 2 -4 -23z"/>
<path d="M2423 4563 c15 -2 39 -2 55 0 15 2 2 4 -28 4 -30 0 -43 -2 -27 -4z"/>
<path d="M2883 4563 c15 -2 39 -2 55 0 15 2 2 4 -28 4 -30 0 -43 -2 -27 -4z"/>
<path d="M5080 4511 c0 -33 4 -62 8 -65 5 -3 6 22 4 55 l-4 59 150 0 151 0 4
-72 3 -73 2 78 2 77 -160 0 -160 0 0 -59z"/>
<path d="M8319 4547 c4 -4 37 -7 72 -5 l64 3 -72 5 c-40 3 -68 1 -64 -3z"/>
<path d="M4851 4464 c0 -11 3 -14 6 -6 3 7 2 16 -1 19 -3 4 -6 -2 -5 -13z"/>
<path d="M5241 4434 c0 -11 3 -14 6 -6 3 7 2 16 -1 19 -3 4 -6 -2 -5 -13z"/>
<path d="M6560 4442 c0 -27 41 -91 72 -113 l33 -22 -34 34 c-19 19 -42 52 -52
74 -10 22 -19 34 -19 27z"/>
<path d="M5948 4310 l76 -130 95 0 c52 0 92 3 88 6 -3 3 -45 7 -93 8 l-87 1
-71 123 c-39 67 -74 122 -78 122 -4 0 28 -58 70 -130z"/>
<path d="M6050 4420 c6 -11 13 -20 16 -20 2 0 0 9 -6 20 -6 11 -13 20 -16 20
-2 0 0 -9 6 -20z"/>
<path d="M8303 4375 c0 -33 2 -45 4 -27 2 18 2 45 0 60 -2 15 -4 0 -4 -33z"/>
<path d="M4881 4390 c15 -32 39 -59 64 -72 11 -6 4 5 -15 24 -19 18 -41 42
-48 53 -11 17 -11 16 -1 -5z"/>
<path d="M6085 4366 c10 -14 19 -26 22 -26 7 0 -17 39 -28 46 -6 3 -3 -5 6
-20z"/>
<path d="M5204 4349 c-3 -6 -20 -19 -38 -30 -17 -10 -25 -19 -19 -19 13 0 83
59 71 60 -4 0 -10 -5 -14 -11z"/>
<path d="M6132 4294 c13 -22 31 -52 41 -65 10 -13 8 -6 -5 17 -13 22 -31 52
-41 65 -10 13 -8 6 5 -17z"/>
<path d="M6855 4320 c-3 -6 1 -7 9 -4 18 7 21 14 7 14 -6 0 -13 -4 -16 -10z"/>
<path d="M4980 4300 c8 -5 24 -10 34 -10 26 0 18 6 -19 14 -22 5 -26 4 -15 -4z"/>
<path d="M6680 4300 c8 -5 22 -9 30 -9 10 0 8 3 -5 9 -27 12 -43 12 -25 0z"/>
<path d="M5108 4293 c7 -3 16 -2 19 1 4 3 -2 6 -13 5 -11 0 -14 -3 -6 -6z"/>
<path d="M6783 4293 c9 -2 23 -2 30 0 6 3 -1 5 -18 5 -16 0 -22 -2 -12 -5z"/>
<path d="M7598 4293 c6 -2 18 -2 25 0 6 3 1 5 -13 5 -14 0 -19 -2 -12 -5z"/>
</g>
</svg>
